<svg id="my-svg" width="100%" xmlns="http://www.w3.org/2000/svg" xmlns:xlink="http://www.w3.org/1999/xlink" class="classDiagram" style="max-width: 1879.87px; background-color: white;" viewBox="0 0 1879.8671875 1254" role="graphics-document document" aria-roledescription="class"><style>#my-svg{font-family:"trebuchet ms",verdana,arial,sans-serif;font-size:16px;fill:#333;}@keyframes edge-animation-frame{from{stroke-dashoffset:0;}}@keyframes dash{to{stroke-dashoffset:0;}}#my-svg .edge-animation-slow{stroke-dasharray:9,5!important;stroke-dashoffset:900;animation:dash 50s linear infinite;stroke-linecap:round;}#my-svg .edge-animation-fast{stroke-dasharray:9,5!important;stroke-dashoffset:900;animation:dash 20s linear infinite;stroke-linecap:round;}#my-svg .error-icon{fill:#552222;}#my-svg .error-text{fill:#552222;stroke:#552222;}#my-svg .edge-thickness-normal{stroke-width:1px;}#my-svg .edge-thickness-thick{stroke-width:3.5px;}#my-svg .edge-pattern-solid{stroke-dasharray:0;}#my-svg .edge-thickness-invisible{stroke-width:0;fill:none;}#my-svg .edge-pattern-dashed{stroke-dasharray:3;}#my-svg .edge-pattern-dotted{stroke-dasharray:2;}#my-svg .marker{fill:#333333;stroke:#333333;}#my-svg .marker.cross{stroke:#333333;}#my-svg svg{font-family:"trebuchet ms",verdana,arial,sans-serif;font-size:16px;}#my-svg p{margin:0;}#my-svg g.classGroup text{fill:#9370DB;stroke:none;font-family:"trebuchet ms",verdana,arial,sans-serif;font-size:10px;}#my-svg g.classGroup text .title{font-weight:bolder;}#my-svg .nodeLabel,#my-svg .edgeLabel{color:#131300;}#my-svg .edgeLabel .label rect{fill:#ECECFF;}#my-svg .label text{fill:#131300;}#my-svg .labelBkg{background:#ECECFF;}#my-svg .edgeLabel .label span{background:#ECECFF;}#my-svg .classTitle{font-weight:bolder;}#my-svg .node rect,#my-svg .node circle,#my-svg .node ellipse,#my-svg .node polygon,#my-svg .node path{fill:#ECECFF;stroke:#9370DB;stroke-width:1px;}#my-svg .divider{stroke:#9370DB;stroke-width:1;}#my-svg g.clickable{cursor:pointer;}#my-svg g.classGroup rect{fill:#ECECFF;stroke:#9370DB;}#my-svg g.classGroup line{stroke:#9370DB;stroke-width:1;}#my-svg .classLabel .box{stroke:none;stroke-width:0;fill:#ECECFF;opacity:0.5;}#my-svg .classLabel .label{fill:#9370DB;font-size:10px;}#my-svg .relation{stroke:#333333;stroke-width:1;fill:none;}#my-svg .dashed-line{stroke-dasharray:3;}#my-svg .dotted-line{stroke-dasharray:1 2;}#my-svg #compositionStart,#my-svg .composition{fill:#333333!important;stroke:#333333!important;stroke-width:1;}#my-svg #compositionEnd,#my-svg .composition{fill:#333333!important;stroke:#333333!important;stroke-width:1;}#my-svg #dependencyStart,#my-svg .dependency{fill:#333333!important;stroke:#333333!important;stroke-width:1;}#my-svg #dependencyStart,#my-svg .dependency{fill:#333333!important;stroke:#333333!important;stroke-width:1;}#my-svg #extensionStart,#my-svg .extension{fill:transparent!important;stroke:#333333!important;stroke-width:1;}#my-svg #extensionEnd,#my-svg .extension{fill:transparent!important;stroke:#333333!important;stroke-width:1;}#my-svg #aggregationStart,#my-svg .aggregation{fill:transparent!important;stroke:#333333!important;stroke-width:1;}#my-svg #aggregationEnd,#my-svg .aggregation{fill:transparent!important;stroke:#333333!important;stroke-width:1;}#my-svg #lollipopStart,#my-svg .lollipop{fill:#ECECFF!important;stroke:#333333!important;stroke-width:1;}#my-svg #lollipopEnd,#my-svg .lollipop{fill:#ECECFF!important;stroke:#333333!important;stroke-width:1;}#my-svg .edgeTerminals{font-size:11px;line-height:initial;}#my-svg .classTitleText{text-anchor:middle;font-size:18px;fill:#333;}#my-svg .label-icon{display:inline-block;height:1em;overflow:visible;vertical-align:-0.125em;}#my-svg .node .label-icon path{fill:currentColor;stroke:revert;stroke-width:revert;}#my-svg :root{--mermaid-font-family:"trebuchet ms",verdana,arial,sans-serif;}</style><g><defs><marker id="my-svg_class-aggregationStart" class="marker aggregation class" refX="18" refY="7" markerWidth="190" markerHeight="240" orient="auto"><path d="M 18,7 L9,13 L1,7 L9,1 Z"/></marker></defs><defs><marker id="my-svg_class-aggregationEnd" class="marker aggregation class" refX="1" refY="7" markerWidth="20" markerHeight="28" orient="auto"><path d="M 18,7 L9,13 L1,7 L9,1 Z"/></marker></defs><defs><marker id="my-svg_class-extensionStart" class="marker extension class" refX="18" refY="7" markerWidth="190" markerHeight="240" orient="auto"><path d="M 1,7 L18,13 V 1 Z"/></marker></defs><defs><marker id="my-svg_class-extensionEnd" class="marker extension class" refX="1" refY="7" markerWidth="20" markerHeight="28" orient="auto"><path d="M 1,1 V 13 L18,7 Z"/></marker></defs><defs><marker id="my-svg_class-compositionStart" class="marker composition class" refX="18" refY="7" markerWidth="190" markerHeight="240" orient="auto"><path d="M 18,7 L9,13 L1,7 L9,1 Z"/></marker></defs><defs><marker id="my-svg_class-compositionEnd" class="marker composition class" refX="1" refY="7" markerWidth="20" markerHeight="28" orient="auto"><path d="M 18,7 L9,13 L1,7 L9,1 Z"/></marker></defs><defs><marker id="my-svg_class-dependencyStart" class="marker dependency class" refX="6" refY="7" markerWidth="190" markerHeight="240" orient="auto"><path d="M 5,7 L9,13 L1,7 L9,1 Z"/></marker></defs><defs><marker id="my-svg_class-dependencyEnd" class="marker dependency class" refX="13" refY="7" markerWidth="20" markerHeight="28" orient="auto"><path d="M 18,7 L9,13 L14,7 L9,1 Z"/></marker></defs><defs><marker id="my-svg_class-lollipopStart" class="marker lollipop class" refX="13" refY="7" markerWidth="190" markerHeight="240" orient="auto"><circle stroke="black" fill="transparent" cx="7" cy="7" r="6"/></marker></defs><defs><marker id="my-svg_class-lollipopEnd" class="marker lollipop class" refX="1" refY="7" markerWidth="190" markerHeight="240" orient="auto"><circle stroke="black" fill="transparent" cx="7" cy="7" r="6"/></marker></defs><g class="root"><g class="clusters"/><g class="edgePaths"><path d="M735.701,175.25L735.701,178.542C735.701,181.833,735.701,188.417,735.701,197.875C735.701,207.333,735.701,219.667,735.701,225.833L735.701,232" id="id_WorkflowCommand_AbstractWorkflowCommand_1" class="edge-thickness-normal edge-pattern-dashed relation" style=";;;" data-edge="true" data-et="edge" data-id="id_WorkflowCommand_AbstractWorkflowCommand_1" data-points="W3sieCI6NzM1LjcwMTE3MTg3NSwieSI6MTU4fSx7IngiOjczNS43MDExNzE4NzUsInkiOjE5NX0seyJ4Ijo3MzUuNzAxMTcxODc1LCJ5IjoyMzJ9XQ==" marker-start="url(#my-svg_class-extensionStart)"/><path d="M502.248,377.081L435.722,391.068C369.197,405.054,236.145,433.027,169.619,452.18C103.094,471.333,103.094,481.667,103.094,486.833L103.094,492" id="id_AbstractWorkflowCommand_WorkflowBoard_2" class="edge-thickness-normal edge-pattern-solid relation" style=";;;" data-edge="true" data-et="edge" data-id="id_AbstractWorkflowCommand_WorkflowBoard_2" data-points="W3sieCI6NTAyLjI0ODA0Njg3NSwieSI6Mzc3LjA4MTQxMjE4NjA0Nzk0fSx7IngiOjEwMy4wOTM3NSwieSI6NDYxfSx7IngiOjEwMy4wOTM3NSwieSI6NDk4fV0=" marker-end="url(#my-svg_class-dependencyEnd)"/><path d="M520.187,431.466L509.934,436.388C499.68,441.31,479.174,451.155,468.921,465.744C458.668,480.333,458.668,499.667,458.668,509.333L458.668,519" id="id_AbstractWorkflowCommand_CreateCommand_3" class="edge-thickness-normal edge-pattern-solid relation" style=";;;" data-edge="true" data-et="edge" data-id="id_AbstractWorkflowCommand_CreateCommand_3" data-points="W3sieCI6NTM1LjczNzM1NjA4NTUyNjQsInkiOjQyNH0seyJ4Ijo0NTguNjY3OTY4NzUsInkiOjQ2MX0seyJ4Ijo0NTguNjY3OTY4NzUsInkiOjUxOX1d" marker-start="url(#my-svg_class-extensionStart)"/><path d="M951.216,431.466L961.469,436.388C971.722,441.31,992.228,451.155,1002.481,465.744C1012.734,480.333,1012.734,499.667,1012.734,509.333L1012.734,519" id="id_AbstractWorkflowCommand_MoveCommand_4" class="edge-thickness-normal edge-pattern-solid relation" style=";;;" data-edge="true" data-et="edge" data-id="id_AbstractWorkflowCommand_MoveCommand_4" data-points="W3sieCI6OTM1LjY2NDk4NzY2NDQ3MzYsInkiOjQyNH0seyJ4IjoxMDEyLjczNDM3NSwieSI6NDYxfSx7IngiOjEwMTIuNzM0Mzc1LCJ5Ijo1MTl9XQ==" marker-start="url(#my-svg_class-extensionStart)"/><path d="M986.205,366.384L1089.118,382.154C1192.031,397.923,1397.857,429.461,1500.771,454.897C1603.684,480.333,1603.684,499.667,1603.684,509.333L1603.684,519" id="id_AbstractWorkflowCommand_AlterCommand_5" class="edge-thickness-normal edge-pattern-solid relation" style=";;;" data-edge="true" data-et="edge" data-id="id_AbstractWorkflowCommand_AlterCommand_5" data-points="W3sieCI6OTY5LjE1NDI5Njg3NSwieSI6MzYzLjc3MTc2Nzc3MTQzNDd9LHsieCI6MTYwMy42ODM1OTM3NSwieSI6NDYxfSx7IngiOjE2MDMuNjgzNTkzNzUsInkiOjUxOX1d" marker-start="url(#my-svg_class-extensionStart)"/><path d="M103.094,690L103.094,696.167C103.094,702.333,103.094,714.667,103.094,726C103.094,737.333,103.094,747.667,103.094,752.833L103.094,758" id="id_WorkflowBoard_Ticket_6" class="edge-thickness-normal edge-pattern-solid relation" style=";;;" data-edge="true" data-et="edge" data-id="id_WorkflowBoard_Ticket_6" data-points="W3sieCI6MTAzLjA5Mzc1LCJ5Ijo2OTB9LHsieCI6MTAzLjA5Mzc1LCJ5Ijo3Mjd9LHsieCI6MTAzLjA5Mzc1LCJ5Ijo3NjR9XQ==" marker-end="url(#my-svg_class-dependencyEnd)"/><path d="M103.094,980L103.094,986.167C103.094,992.333,103.094,1004.667,103.094,1016C103.094,1027.333,103.094,1037.667,103.094,1042.833L103.094,1048" id="id_Ticket_Status_7" class="edge-thickness-normal edge-pattern-solid relation" style=";;;" data-edge="true" data-et="edge" data-id="id_Ticket_Status_7" data-points="W3sieCI6MTAzLjA5Mzc1LCJ5Ijo5ODB9LHsieCI6MTAzLjA5Mzc1LCJ5IjoxMDE3fSx7IngiOjEwMy4wOTM3NSwieSI6MTA1NH1d" marker-end="url(#my-svg_class-dependencyEnd)"/></g><g class="edgeLabels"><g class="edgeLabel" transform="translate(735.701171875, 195)"><g class="label" data-id="id_WorkflowCommand_AbstractWorkflowCommand_1" transform="translate(-41.890625, -12)"><foreignObject width="83.78125" height="24"><div xmlns="http://www.w3.org/1999/xhtml" class="labelBkg" style="display: table-cell; white-space: nowrap; line-height: 1.5; max-width: 200px; text-align: center;"><span class="edgeLabel"><p>implements</p></span></div></foreignObject></g></g><g class="edgeLabel" transform="translate(103.09375, 461)"><g class="label" data-id="id_AbstractWorkflowCommand_WorkflowBoard_2" transform="translate(-20.5234375, -12)"><foreignObject width="41.046875" height="24"><div xmlns="http://www.w3.org/1999/xhtml" class="labelBkg" style="display: table-cell; white-space: nowrap; line-height: 1.5; max-width: 200px; text-align: center;"><span class="edgeLabel"><p>board</p></span></div></foreignObject></g></g><g class="edgeLabel"><g class="label" data-id="id_AbstractWorkflowCommand_CreateCommand_3" transform="translate(0, 0)"><foreignObject width="0" height="0"><div xmlns="http://www.w3.org/1999/xhtml" class="labelBkg" style="display: table-cell; white-space: nowrap; line-height: 1.5; max-width: 200px; text-align: center;"><span class="edgeLabel"></span></div></foreignObject></g></g><g class="edgeLabel"><g class="label" data-id="id_AbstractWorkflowCommand_MoveCommand_4" transform="translate(0, 0)"><foreignObject width="0" height="0"><div xmlns="http://www.w3.org/1999/xhtml" class="labelBkg" style="display: table-cell; white-space: nowrap; line-height: 1.5; max-width: 200px; text-align: center;"><span class="edgeLabel"></span></div></foreignObject></g></g><g class="edgeLabel"><g class="label" data-id="id_AbstractWorkflowCommand_AlterCommand_5" transform="translate(0, 0)"><foreignObject width="0" height="0"><div xmlns="http://www.w3.org/1999/xhtml" class="labelBkg" style="display: table-cell; white-space: nowrap; line-height: 1.5; max-width: 200px; text-align: center;"><span class="edgeLabel"></span></div></foreignObject></g></g><g class="edgeLabel" transform="translate(103.09375, 727)"><g class="label" data-id="id_WorkflowBoard_Ticket_6" transform="translate(-31.0390625, -12)"><foreignObject width="62.078125" height="24"><div xmlns="http://www.w3.org/1999/xhtml" class="labelBkg" style="display: table-cell; white-space: nowrap; line-height: 1.5; max-width: 200px; text-align: center;"><span class="edgeLabel"><p>manages</p></span></div></foreignObject></g></g><g class="edgeLabel" transform="translate(103.09375, 1017)"><g class="label" data-id="id_Ticket_Status_7" transform="translate(-21.3984375, -12)"><foreignObject width="42.796875" height="24"><div xmlns="http://www.w3.org/1999/xhtml" class="labelBkg" style="display: table-cell; white-space: nowrap; line-height: 1.5; max-width: 200px; text-align: center;"><span class="edgeLabel"><p>status</p></span></div></foreignObject></g></g><g class="edgeTerminals" transform="translate(113.09375, 475.5)"><g class="inner" transform="translate(0, 0)"/><foreignObject style="width: 9px; height: 12px;"><div xmlns="http://www.w3.org/1999/xhtml" style="display: inline-block; padding-right: 1px; white-space: nowrap;"><span class="edgeLabel">1</span></div></foreignObject></g><g class="edgeTerminals" transform="translate(113.09375, 741.5)"><g class="inner" transform="translate(0, 0)"/><foreignObject style="width: 9px; height: 12px;"><div xmlns="http://www.w3.org/1999/xhtml" style="display: inline-block; padding-right: 1px; white-space: nowrap;"><span class="edgeLabel">*</span></div></foreignObject></g><g class="edgeTerminals" transform="translate(113.09375, 1031.5)"><g class="inner" transform="translate(0, 0)"/><foreignObject style="width: 9px; height: 12px;"><div xmlns="http://www.w3.org/1999/xhtml" style="display: inline-block; padding-right: 1px; white-space: nowrap;"><span class="edgeLabel">1</span></div></foreignObject></g></g><g class="nodes"><g class="node default" id="classId-WorkflowCommand-0" transform="translate(735.701171875, 83)"><g class="basic label-container"><path d="M-145.1875 -75 L145.1875 -75 L145.1875 75 L-145.1875 75" stroke="none" stroke-width="0" fill="#ECECFF" style=""/><path d="M-145.1875 -75 C-29.427275546841244 -75, 86.33294890631751 -75, 145.1875 -75 M-145.1875 -75 C-56.76590690512552 -75, 31.655686189748963 -75, 145.1875 -75 M145.1875 -75 C145.1875 -37.56888480714097, 145.1875 -0.13776961428193601, 145.1875 75 M145.1875 -75 C145.1875 -34.016776495194605, 145.1875 6.966447009610789, 145.1875 75 M145.1875 75 C85.7703123335839 75, 26.353124667167805 75, -145.1875 75 M145.1875 75 C58.269068094003714 75, -28.649363811992572 75, -145.1875 75 M-145.1875 75 C-145.1875 30.475219501610972, -145.1875 -14.049560996778055, -145.1875 -75 M-145.1875 75 C-145.1875 37.08714651061326, -145.1875 -0.8257069787734821, -145.1875 -75" stroke="#9370DB" stroke-width="1.3" fill="none" stroke-dasharray="0 0" style=""/></g><g class="annotation-group text" transform="translate(-41.171875, -51)"><g class="label" style="" transform="translate(0,-12)"><foreignObject width="82.34375" height="24"><div xmlns="http://www.w3.org/1999/xhtml" style="display: table-cell; white-space: nowrap; line-height: 1.5; max-width: 122px; text-align: center;"><span class="nodeLabel markdown-node-label" style=""><p>«interface»</p></span></div></foreignObject></g></g><g class="label-group text" transform="translate(-72.171875, -27)"><g class="label" style="font-weight: bolder" transform="translate(0,-12)"><foreignObject width="144.34375" height="24"><div xmlns="http://www.w3.org/1999/xhtml" style="display: table-cell; white-space: nowrap; line-height: 1.5; max-width: 181px; text-align: center;"><span class="nodeLabel markdown-node-label" style=""><p>WorkflowCommand</p></span></div></foreignObject></g></g><g class="members-group text" transform="translate(-133.1875, 21)"/><g class="methods-group text" transform="translate(-133.1875, 51)"><g class="label" style="" transform="translate(0,-12)"><foreignObject width="194.203125" height="24"><div xmlns="http://www.w3.org/1999/xhtml" style="display: table-cell; white-space: nowrap; line-height: 1.5; max-width: 233px; text-align: center;"><span class="nodeLabel markdown-node-label" style=""><p>+performCommand() : void</p></span></div></foreignObject></g></g><g class="divider" style=""><path d="M-145.1875 -3 C-85.75552401914086 -3, -26.323548038281714 -3, 145.1875 -3 M-145.1875 -3 C-55.80664449185967 -3, 33.57421101628066 -3, 145.1875 -3" stroke="#9370DB" stroke-width="1.3" fill="none" stroke-dasharray="0 0" style=""/></g><g class="divider" style=""><path d="M-145.1875 21 C-78.12727161522676 21, -11.067043230453521 21, 145.1875 21 M-145.1875 21 C-79.11343990842671 21, -13.039379816853426 21, 145.1875 21" stroke="#9370DB" stroke-width="1.3" fill="none" stroke-dasharray="0 0" style=""/></g></g><g class="node default" id="classId-AbstractWorkflowCommand-1" transform="translate(735.701171875, 328)"><g class="basic label-container"><path d="M-233.453125 -96 L233.453125 -96 L233.453125 96 L-233.453125 96" stroke="none" stroke-width="0" fill="#ECECFF" style=""/><path d="M-233.453125 -96 C-64.44600724034262 -96, 104.56111051931475 -96, 233.453125 -96 M-233.453125 -96 C-131.65483264915105 -96, -29.85654029830212 -96, 233.453125 -96 M233.453125 -96 C233.453125 -40.96966516263764, 233.453125 14.060669674724721, 233.453125 96 M233.453125 -96 C233.453125 -35.49052199294721, 233.453125 25.018956014105584, 233.453125 96 M233.453125 96 C80.09588718262134 96, -73.26135063475732 96, -233.453125 96 M233.453125 96 C65.77031341219467 96, -101.91249817561066 96, -233.453125 96 M-233.453125 96 C-233.453125 20.53231755168565, -233.453125 -54.9353648966287, -233.453125 -96 M-233.453125 96 C-233.453125 38.40837671215607, -233.453125 -19.18324657568786, -233.453125 -96" stroke="#9370DB" stroke-width="1.3" fill="none" stroke-dasharray="0 0" style=""/></g><g class="annotation-group text" transform="translate(-37.90625, -72)"><g class="label" style="" transform="translate(0,-12)"><foreignObject width="75.8125" height="24"><div xmlns="http://www.w3.org/1999/xhtml" style="display: table-cell; white-space: nowrap; line-height: 1.5; max-width: 116px; text-align: center;"><span class="nodeLabel markdown-node-label" style=""><p>«abstract»</p></span></div></foreignObject></g></g><g class="label-group text" transform="translate(-103.203125, -48)"><g class="label" style="font-weight: bolder" transform="translate(0,-12)"><foreignObject width="206.40625" height="24"><div xmlns="http://www.w3.org/1999/xhtml" style="display: table-cell; white-space: nowrap; line-height: 1.5; max-width: 235px; text-align: center;"><span class="nodeLabel markdown-node-label" style=""><p>AbstractWorkflowCommand</p></span></div></foreignObject></g></g><g class="members-group text" transform="translate(-221.453125, 0)"><g class="label" style="" transform="translate(0,-12)"><foreignObject width="170.515625" height="24"><div xmlns="http://www.w3.org/1999/xhtml" style="display: table-cell; white-space: nowrap; line-height: 1.5; max-width: 212px; text-align: center;"><span class="nodeLabel markdown-node-label" style=""><p>-board : WorkflowBoard</p></span></div></foreignObject></g></g><g class="methods-group text" transform="translate(-221.453125, 48)"><g class="label" style="" transform="translate(0,-12)"><foreignObject width="339.703125" height="24"><div xmlns="http://www.w3.org/1999/xhtml" style="display: table-cell; white-space: nowrap; line-height: 1.5; max-width: 375px; text-align: center;"><span class="nodeLabel markdown-node-label" style=""><p>+AbstractWorkflowCommand(WorkflowBoard b)</p></span></div></foreignObject></g><g class="label" style="" transform="translate(0,12)"><foreignObject width="194.203125" height="24"><div xmlns="http://www.w3.org/1999/xhtml" style="display: table-cell; white-space: nowrap; line-height: 1.5; max-width: 233px; text-align: center;"><span class="nodeLabel markdown-node-label" style=""><p>+performCommand() : void</p></span></div></foreignObject></g></g><g class="divider" style=""><path d="M-233.453125 -24 C-53.11745275493237 -24, 127.21821949013525 -24, 233.453125 -24 M-233.453125 -24 C-134.83679268072103 -24, -36.22046036144209 -24, 233.453125 -24" stroke="#9370DB" stroke-width="1.3" fill="none" stroke-dasharray="0 0" style=""/></g><g class="divider" style=""><path d="M-233.453125 24 C-124.66591387792933 24, -15.878702755858654 24, 233.453125 24 M-233.453125 24 C-47.35359394332258 24, 138.74593711335484 24, 233.453125 24" stroke="#9370DB" stroke-width="1.3" fill="none" stroke-dasharray="0 0" style=""/></g></g><g class="node default" id="classId-WorkflowBoard-2" transform="translate(103.09375, 594)"><g class="basic label-container"><path d="M-74.2734375 -96 L74.2734375 -96 L74.2734375 96 L-74.2734375 96" stroke="none" stroke-width="0" fill="#ECECFF" style=""/><path d="M-74.2734375 -96 C-39.83738999879363 -96, -5.401342497587265 -96, 74.2734375 -96 M-74.2734375 -96 C-37.78843883870032 -96, -1.3034401774006454 -96, 74.2734375 -96 M74.2734375 -96 C74.2734375 -24.252751331019567, 74.2734375 47.494497337960865, 74.2734375 96 M74.2734375 -96 C74.2734375 -35.76369666457034, 74.2734375 24.47260667085932, 74.2734375 96 M74.2734375 96 C27.05634398418806 96, -20.16074953162388 96, -74.2734375 96 M74.2734375 96 C27.197790383771647 96, -19.877856732456706 96, -74.2734375 96 M-74.2734375 96 C-74.2734375 22.822875089117844, -74.2734375 -50.35424982176431, -74.2734375 -96 M-74.2734375 96 C-74.2734375 33.49273586248837, -74.2734375 -29.014528275023267, -74.2734375 -96" stroke="#9370DB" stroke-width="1.3" fill="none" stroke-dasharray="0 0" style=""/></g><g class="annotation-group text" transform="translate(0, -72)"/><g class="label-group text" transform="translate(-56.984375, -72)"><g class="label" style="font-weight: bolder" transform="translate(0,-12)"><foreignObject width="113.96875" height="24"><div xmlns="http://www.w3.org/1999/xhtml" style="display: table-cell; white-space: nowrap; line-height: 1.5; max-width: 154px; text-align: center;"><span class="nodeLabel markdown-node-label" style=""><p>WorkflowBoard</p></span></div></foreignObject></g></g><g class="members-group text" transform="translate(-62.2734375, -24)"><g class="label" style="" transform="translate(0,-12)"><foreignObject width="64.34375" height="24"><div xmlns="http://www.w3.org/1999/xhtml" style="display: table-cell; white-space: nowrap; line-height: 1.5; max-width: 114px; text-align: center;"><span class="nodeLabel markdown-node-label" style=""><p>-columns</p></span></div></foreignObject></g><g class="label" style="" transform="translate(0,12)"><foreignObject width="54.328125" height="24"><div xmlns="http://www.w3.org/1999/xhtml" style="display: table-cell; white-space: nowrap; line-height: 1.5; max-width: 102px; text-align: center;"><span class="nodeLabel markdown-node-label" style=""><p>-tickets</p></span></div></foreignObject></g><g class="label" style="" transform="translate(0,36)"><foreignObject width="67.5625" height="24"><div xmlns="http://www.w3.org/1999/xhtml" style="display: table-cell; white-space: nowrap; line-height: 1.5; max-width: 118px; text-align: center;"><span class="nodeLabel markdown-node-label" style=""><p>-auditLog</p></span></div></foreignObject></g></g><g class="methods-group text" transform="translate(-62.2734375, 72)"><g class="label" style="" transform="translate(0,-12)"><foreignObject width="37.765625" height="24"><div xmlns="http://www.w3.org/1999/xhtml" style="display: table-cell; white-space: nowrap; line-height: 1.5; max-width: 86px; text-align: center;"><span class="nodeLabel markdown-node-label" style=""><p>+...()</p></span></div></foreignObject></g></g><g class="divider" style=""><path d="M-74.2734375 -48 C-37.08965545868523 -48, 0.0941265826295421 -48, 74.2734375 -48 M-74.2734375 -48 C-34.197234211683124 -48, 5.8789690766337515 -48, 74.2734375 -48" stroke="#9370DB" stroke-width="1.3" fill="none" stroke-dasharray="0 0" style=""/></g><g class="divider" style=""><path d="M-74.2734375 48 C-39.938550816956976 48, -5.603664133913952 48, 74.2734375 48 M-74.2734375 48 C-17.249992773403 48, 39.773451953194 48, 74.2734375 48" stroke="#9370DB" stroke-width="1.3" fill="none" stroke-dasharray="0 0" style=""/></g></g><g class="node default" id="classId-CreateCommand-3" transform="translate(458.66796875, 594)"><g class="basic label-container"><path d="M-231.30078125 -75 L231.30078125 -75 L231.30078125 75 L-231.30078125 75" stroke="none" stroke-width="0" fill="#ECECFF" style=""/><path d="M-231.30078125 -75 C-131.05785558111626 -75, -30.814929912232515 -75, 231.30078125 -75 M-231.30078125 -75 C-56.30295842218959 -75, 118.69486440562082 -75, 231.30078125 -75 M231.30078125 -75 C231.30078125 -26.539393528251345, 231.30078125 21.92121294349731, 231.30078125 75 M231.30078125 -75 C231.30078125 -29.996458357573466, 231.30078125 15.007083284853067, 231.30078125 75 M231.30078125 75 C104.47876120652008 75, -22.343258836959848 75, -231.30078125 75 M231.30078125 75 C135.8420362132399 75, 40.38329117647979 75, -231.30078125 75 M-231.30078125 75 C-231.30078125 37.809095055886694, -231.30078125 0.6181901117733872, -231.30078125 -75 M-231.30078125 75 C-231.30078125 21.381733870987922, -231.30078125 -32.236532258024155, -231.30078125 -75" stroke="#9370DB" stroke-width="1.3" fill="none" stroke-dasharray="0 0" style=""/></g><g class="annotation-group text" transform="translate(0, -51)"/><g class="label-group text" transform="translate(-61.7421875, -51)"><g class="label" style="font-weight: bolder" transform="translate(0,-12)"><foreignObject width="123.484375" height="24"><div xmlns="http://www.w3.org/1999/xhtml" style="display: table-cell; white-space: nowrap; line-height: 1.5; max-width: 158px; text-align: center;"><span class="nodeLabel markdown-node-label" style=""><p>CreateCommand</p></span></div></foreignObject></g></g><g class="members-group text" transform="translate(-219.30078125, -3)"/><g class="methods-group text" transform="translate(-219.30078125, 27)"><g class="label" style="" transform="translate(0,-12)"><foreignObject width="376.859375" height="24"><div xmlns="http://www.w3.org/1999/xhtml" style="display: table-cell; white-space: nowrap; line-height: 1.5; max-width: 394px; text-align: center;"><span class="nodeLabel markdown-node-label" style=""><p>+CreateCommand(WorkflowBoard b, String title, ...)</p></span></div></foreignObject></g><g class="label" style="" transform="translate(0,12)"><foreignObject width="194.203125" height="24"><div xmlns="http://www.w3.org/1999/xhtml" style="display: table-cell; white-space: nowrap; line-height: 1.5; max-width: 233px; text-align: center;"><span class="nodeLabel markdown-node-label" style=""><p>+performCommand() : void</p></span></div></foreignObject></g></g><g class="divider" style=""><path d="M-231.30078125 -27 C-135.36311415543426 -27, -39.42544706086852 -27, 231.30078125 -27 M-231.30078125 -27 C-71.52633892012838 -27, 88.24810340974324 -27, 231.30078125 -27" stroke="#9370DB" stroke-width="1.3" fill="none" stroke-dasharray="0 0" style=""/></g><g class="divider" style=""><path d="M-231.30078125 -3 C-52.70885703681762 -3, 125.88306717636476 -3, 231.30078125 -3 M-231.30078125 -3 C-84.7019375045792 -3, 61.89690624084159 -3, 231.30078125 -3" stroke="#9370DB" stroke-width="1.3" fill="none" stroke-dasharray="0 0" style=""/></g></g><g class="node default" id="classId-MoveCommand-4" transform="translate(1012.734375, 594)"><g class="basic label-container"><path d="M-272.765625 -75 L272.765625 -75 L272.765625 75 L-272.765625 75" stroke="none" stroke-width="0" fill="#ECECFF" style=""/><path d="M-272.765625 -75 C-83.26994909453472 -75, 106.22572681093055 -75, 272.765625 -75 M-272.765625 -75 C-68.39238545581958 -75, 135.98085408836084 -75, 272.765625 -75 M272.765625 -75 C272.765625 -40.54405226764034, 272.765625 -6.088104535280678, 272.765625 75 M272.765625 -75 C272.765625 -43.04928163183154, 272.765625 -11.098563263663081, 272.765625 75 M272.765625 75 C129.12521402713963 75, -14.515196945720731 75, -272.765625 75 M272.765625 75 C78.83567710165292 75, -115.09427079669416 75, -272.765625 75 M-272.765625 75 C-272.765625 29.485442700277588, -272.765625 -16.029114599444824, -272.765625 -75 M-272.765625 75 C-272.765625 20.241698098181914, -272.765625 -34.51660380363617, -272.765625 -75" stroke="#9370DB" stroke-width="1.3" fill="none" stroke-dasharray="0 0" style=""/></g><g class="annotation-group text" transform="translate(0, -51)"/><g class="label-group text" transform="translate(-56.109375, -51)"><g class="label" style="font-weight: bolder" transform="translate(0,-12)"><foreignObject width="112.21875" height="24"><div xmlns="http://www.w3.org/1999/xhtml" style="display: table-cell; white-space: nowrap; line-height: 1.5; max-width: 154px; text-align: center;"><span class="nodeLabel markdown-node-label" style=""><p>MoveCommand</p></span></div></foreignObject></g></g><g class="members-group text" transform="translate(-260.765625, -3)"/><g class="methods-group text" transform="translate(-260.765625, 27)"><g class="label" style="" transform="translate(0,-12)"><foreignObject width="465.421875" height="24"><div xmlns="http://www.w3.org/1999/xhtml" style="display: table-cell; white-space: nowrap; line-height: 1.5; max-width: 487px; text-align: center;"><span class="nodeLabel markdown-node-label" style=""><p>+MoveCommand(WorkflowBoard b, int ticketId, String toColumn)</p></span></div></foreignObject></g><g class="label" style="" transform="translate(0,12)"><foreignObject width="194.203125" height="24"><div xmlns="http://www.w3.org/1999/xhtml" style="display: table-cell; white-space: nowrap; line-height: 1.5; max-width: 233px; text-align: center;"><span class="nodeLabel markdown-node-label" style=""><p>+performCommand() : void</p></span></div></foreignObject></g></g><g class="divider" style=""><path d="M-272.765625 -27 C-157.35806260182247 -27, -41.950500203644935 -27, 272.765625 -27 M-272.765625 -27 C-66.00813889314568 -27, 140.74934721370863 -27, 272.765625 -27" stroke="#9370DB" stroke-width="1.3" fill="none" stroke-dasharray="0 0" style=""/></g><g class="divider" style=""><path d="M-272.765625 -3 C-64.11403609662773 -3, 144.53755280674454 -3, 272.765625 -3 M-272.765625 -3 C-82.62149931200602 -3, 107.52262637598795 -3, 272.765625 -3" stroke="#9370DB" stroke-width="1.3" fill="none" stroke-dasharray="0 0" style=""/></g></g><g class="node default" id="classId-AlterCommand-5" transform="translate(1603.68359375, 594)"><g class="basic label-container"><path d="M-268.18359375 -75 L268.18359375 -75 L268.18359375 75 L-268.18359375 75" stroke="none" stroke-width="0" fill="#ECECFF" style=""/><path d="M-268.18359375 -75 C-102.19266355741257 -75, 63.798266635174855 -75, 268.18359375 -75 M-268.18359375 -75 C-97.25305551148367 -75, 73.67748272703267 -75, 268.18359375 -75 M268.18359375 -75 C268.18359375 -31.08148819221924, 268.18359375 12.83702361556152, 268.18359375 75 M268.18359375 -75 C268.18359375 -18.635381056104343, 268.18359375 37.729237887791314, 268.18359375 75 M268.18359375 75 C133.1440961809841 75, -1.8954013880318143 75, -268.18359375 75 M268.18359375 75 C109.03211647722208 75, -50.11936079555585 75, -268.18359375 75 M-268.18359375 75 C-268.18359375 40.25328074302063, -268.18359375 5.506561486041264, -268.18359375 -75 M-268.18359375 75 C-268.18359375 37.965994426891136, -268.18359375 0.931988853782272, -268.18359375 -75" stroke="#9370DB" stroke-width="1.3" fill="none" stroke-dasharray="0 0" style=""/></g><g class="annotation-group text" transform="translate(0, -51)"/><g class="label-group text" transform="translate(-55.4140625, -51)"><g class="label" style="font-weight: bolder" transform="translate(0,-12)"><foreignObject width="110.828125" height="24"><div xmlns="http://www.w3.org/1999/xhtml" style="display: table-cell; white-space: nowrap; line-height: 1.5; max-width: 150px; text-align: center;"><span class="nodeLabel markdown-node-label" style=""><p>AlterCommand</p></span></div></foreignObject></g></g><g class="members-group text" transform="translate(-256.18359375, -3)"/><g class="methods-group text" transform="translate(-256.18359375, 27)"><g class="label" style="" transform="translate(0,-12)"><foreignObject width="456.953125" height="24"><div xmlns="http://www.w3.org/1999/xhtml" style="display: table-cell; white-space: nowrap; line-height: 1.5; max-width: 467px; text-align: center;"><span class="nodeLabel markdown-node-label" style=""><p>+AlterCommand(WorkflowBoard b, int ticketId, String field, ...)</p></span></div></foreignObject></g><g class="label" style="" transform="translate(0,12)"><foreignObject width="194.203125" height="24"><div xmlns="http://www.w3.org/1999/xhtml" style="display: table-cell; white-space: nowrap; line-height: 1.5; max-width: 233px; text-align: center;"><span class="nodeLabel markdown-node-label" style=""><p>+performCommand() : void</p></span></div></foreignObject></g></g><g class="divider" style=""><path d="M-268.18359375 -27 C-149.0556274787927 -27, -29.927661207585402 -27, 268.18359375 -27 M-268.18359375 -27 C-56.18094514028857 -27, 155.82170346942286 -27, 268.18359375 -27" stroke="#9370DB" stroke-width="1.3" fill="none" stroke-dasharray="0 0" style=""/></g><g class="divider" style=""><path d="M-268.18359375 -3 C-114.27991712288457 -3, 39.62375950423086 -3, 268.18359375 -3 M-268.18359375 -3 C-89.777244721416 -3, 88.629104307168 -3, 268.18359375 -3" stroke="#9370DB" stroke-width="1.3" fill="none" stroke-dasharray="0 0" style=""/></g></g><g class="node default" id="classId-Ticket-6" transform="translate(103.09375, 872)"><g class="basic label-container"><path d="M-95.09375 -108 L95.09375 -108 L95.09375 108 L-95.09375 108" stroke="none" stroke-width="0" fill="#ECECFF" style=""/><path d="M-95.09375 -108 C-23.7575668423365 -108, 47.578616315327 -108, 95.09375 -108 M-95.09375 -108 C-21.15267711278922 -108, 52.78839577442156 -108, 95.09375 -108 M95.09375 -108 C95.09375 -62.7107400278425, 95.09375 -17.421480055684995, 95.09375 108 M95.09375 -108 C95.09375 -53.047454825179734, 95.09375 1.9050903496405311, 95.09375 108 M95.09375 108 C46.9795350111177 108, -1.1346799777646055 108, -95.09375 108 M95.09375 108 C41.087520104901024 108, -12.918709790197951 108, -95.09375 108 M-95.09375 108 C-95.09375 44.16907986302543, -95.09375 -19.66184027394914, -95.09375 -108 M-95.09375 108 C-95.09375 53.51909065376243, -95.09375 -0.9618186924751342, -95.09375 -108" stroke="#9370DB" stroke-width="1.3" fill="none" stroke-dasharray="0 0" style=""/></g><g class="annotation-group text" transform="translate(0, -84)"/><g class="label-group text" transform="translate(-23.234375, -84)"><g class="label" style="font-weight: bolder" transform="translate(0,-12)"><foreignObject width="46.46875" height="24"><div xmlns="http://www.w3.org/1999/xhtml" style="display: table-cell; white-space: nowrap; line-height: 1.5; max-width: 90px; text-align: center;"><span class="nodeLabel markdown-node-label" style=""><p>Ticket</p></span></div></foreignObject></g></g><g class="members-group text" transform="translate(-83.09375, -36)"><g class="label" style="" transform="translate(0,-12)"><foreignObject width="54.515625" height="24"><div xmlns="http://www.w3.org/1999/xhtml" style="display: table-cell; white-space: nowrap; line-height: 1.5; max-width: 102px; text-align: center;"><span class="nodeLabel markdown-node-label" style=""><p>-id : int</p></span></div></foreignObject></g><g class="label" style="" transform="translate(0,12)"><foreignObject width="93.6875" height="24"><div xmlns="http://www.w3.org/1999/xhtml" style="display: table-cell; white-space: nowrap; line-height: 1.5; max-width: 136px; text-align: center;"><span class="nodeLabel markdown-node-label" style=""><p>-title : String</p></span></div></foreignObject></g><g class="label" style="" transform="translate(0,36)"><foreignObject width="142.953125" height="24"><div xmlns="http://www.w3.org/1999/xhtml" style="display: table-cell; white-space: nowrap; line-height: 1.5; max-width: 182px; text-align: center;"><span class="nodeLabel markdown-node-label" style=""><p>-description : String</p></span></div></foreignObject></g><g class="label" style="" transform="translate(0,60)"><foreignObject width="116.28125" height="24"><div xmlns="http://www.w3.org/1999/xhtml" style="display: table-cell; white-space: nowrap; line-height: 1.5; max-width: 159px; text-align: center;"><span class="nodeLabel markdown-node-label" style=""><p>-priority : String</p></span></div></foreignObject></g><g class="label" style="" transform="translate(0,84)"><foreignObject width="108.1875" height="24"><div xmlns="http://www.w3.org/1999/xhtml" style="display: table-cell; white-space: nowrap; line-height: 1.5; max-width: 148px; text-align: center;"><span class="nodeLabel markdown-node-label" style=""><p>-status : Status</p></span></div></foreignObject></g></g><g class="methods-group text" transform="translate(-83.09375, 108)"/><g class="divider" style=""><path d="M-95.09375 -60 C-46.40355252995105 -60, 2.2866449400979008 -60, 95.09375 -60 M-95.09375 -60 C-46.79065419699107 -60, 1.512441606017859 -60, 95.09375 -60" stroke="#9370DB" stroke-width="1.3" fill="none" stroke-dasharray="0 0" style=""/></g><g class="divider" style=""><path d="M-95.09375 84 C-25.265590298784133 84, 44.562569402431734 84, 95.09375 84 M-95.09375 84 C-36.8505529912535 84, 21.392644017492998 84, 95.09375 84" stroke="#9370DB" stroke-width="1.3" fill="none" stroke-dasharray="0 0" style=""/></g></g><g class="node default" id="classId-Status-7" transform="translate(103.09375, 1150)"><g class="basic label-container"><path d="M-87.05078125 -96 L87.05078125 -96 L87.05078125 96 L-87.05078125 96" stroke="none" stroke-width="0" fill="#ECECFF" style=""/><path d="M-87.05078125 -96 C-30.575462652006927 -96, 25.899855945986147 -96, 87.05078125 -96 M-87.05078125 -96 C-41.36064494588397 -96, 4.329491358232062 -96, 87.05078125 -96 M87.05078125 -96 C87.05078125 -46.289009259380634, 87.05078125 3.4219814812387312, 87.05078125 96 M87.05078125 -96 C87.05078125 -44.87273539475912, 87.05078125 6.254529210481763, 87.05078125 96 M87.05078125 96 C36.147536618139405 96, -14.75570801372119 96, -87.05078125 96 M87.05078125 96 C51.25549227577857 96, 15.460203301557144 96, -87.05078125 96 M-87.05078125 96 C-87.05078125 52.353934967910156, -87.05078125 8.707869935820312, -87.05078125 -96 M-87.05078125 96 C-87.05078125 30.531017377811153, -87.05078125 -34.93796524437769, -87.05078125 -96" stroke="#9370DB" stroke-width="1.3" fill="none" stroke-dasharray="0 0" style=""/></g><g class="annotation-group text" transform="translate(-53.9296875, -72)"><g class="label" style="" transform="translate(0,-12)"><foreignObject width="107.859375" height="24"><div xmlns="http://www.w3.org/1999/xhtml" style="display: table-cell; white-space: nowrap; line-height: 1.5; max-width: 146px; text-align: center;"><span class="nodeLabel markdown-node-label" style=""><p>«enumeration»</p></span></div></foreignObject></g></g><g class="label-group text" transform="translate(-22.8671875, -48)"><g class="label" style="font-weight: bolder" transform="translate(0,-12)"><foreignObject width="45.734375" height="24"><div xmlns="http://www.w3.org/1999/xhtml" style="display: table-cell; white-space: nowrap; line-height: 1.5; max-width: 89px; text-align: center;"><span class="nodeLabel markdown-node-label" style=""><p>Status</p></span></div></foreignObject></g></g><g class="members-group text" transform="translate(-75.05078125, 0)"><g class="label" style="" transform="translate(0,-12)"><foreignObject width="48.171875" height="24"><div xmlns="http://www.w3.org/1999/xhtml" style="display: table-cell; white-space: nowrap; line-height: 1.5; max-width: 102px; text-align: center;"><span class="nodeLabel markdown-node-label" style=""><p>TO_DO</p></span></div></foreignObject></g><g class="label" style="" transform="translate(0,12)"><foreignObject width="96.171875" height="24"><div xmlns="http://www.w3.org/1999/xhtml" style="display: table-cell; white-space: nowrap; line-height: 1.5; max-width: 156px; text-align: center;"><span class="nodeLabel markdown-node-label" style=""><p>IN_PROGRESS</p></span></div></foreignObject></g><g class="label" style="" transform="translate(0,36)"><foreignObject width="39.375" height="24"><div xmlns="http://www.w3.org/1999/xhtml" style="display: table-cell; white-space: nowrap; line-height: 1.5; max-width: 94px; text-align: center;"><span class="nodeLabel markdown-node-label" style=""><p>DONE</p></span></div></foreignObject></g></g><g class="methods-group text" transform="translate(-75.05078125, 96)"/><g class="divider" style=""><path d="M-87.05078125 -24 C-17.849030648563712 -24, 51.352719952872576 -24, 87.05078125 -24 M-87.05078125 -24 C-28.5805488778718 -24, 29.889683494256403 -24, 87.05078125 -24" stroke="#9370DB" stroke-width="1.3" fill="none" stroke-dasharray="0 0" style=""/></g><g class="divider" style=""><path d="M-87.05078125 72 C-27.383259245406713 72, 32.284262759186575 72, 87.05078125 72 M-87.05078125 72 C-28.429007087439082 72, 30.192767075121836 72, 87.05078125 72" stroke="#9370DB" stroke-width="1.3" fill="none" stroke-dasharray="0 0" style=""/></g></g></g></g></g></svg>